<?xml version="1.0" encoding="UTF-8"?>
<!DOCTYPE svg PUBLIC "-//W3C//DTD SVG 1.1//EN" "http://www.w3.org/Graphics/SVG/1.1/DTD/svg11.dtd">
<!-- Creator: CorelDRAW 2017 -->
<svg xmlns="http://www.w3.org/2000/svg" xml:space="preserve" width="1.85486in" height="3.84707in" version="1.1" shape-rendering="geometricPrecision" text-rendering="geometricPrecision" image-rendering="optimizeQuality" fill-rule="evenodd" clip-rule="evenodd"
viewBox="0 0 334.82 694.43"
 xmlns:xlink="http://www.w3.org/1999/xlink">
 <defs>
   <clipPath id="id0">
    <path d="M327.74 49.85c0,-10.68 -5.23,-21.01 -12.73,-28.42 -8.72,-8.63 -20.32,-13.37 -32.58,-13.35l-230.06 0.28c-22.72,0.03 -45.31,17.78 -45.31,41.61l0 594.95c0,23.83 22.58,41.64 45.31,41.61l230.06 -0.28c12.26,-0.01 23.86,-4.73 32.58,-13.35 7.49,-7.41 12.73,-17.74 12.73,-28.42l0 -581.67 0 -12.97z"/>
   </clipPath>
 </defs>
 <g id="Слой_x0020_1">
  <metadata id="CorelCorpID_0Corel-Layer"/>
  <path fill="none" stroke="black" stroke-width="3.76" stroke-miterlimit="2.61313" d="M167.41 1.88l-113.07 0c-30.04,0 -52.45,19.69 -52.45,48.96l0 292.42 0 300.32c0,29.27 21.57,48.96 52.45,48.96l113.07 0 113.07 0c30.89,0 52.45,-19.69 52.45,-48.96l0 -300.32 0 -292.42c0,-29.27 -22.42,-48.96 -52.45,-48.96l-113.07 0z"/>
  <path fill="black" d="M327.74 49.85c0,-10.68 -5.23,-21.01 -12.73,-28.42 -8.72,-8.63 -20.32,-13.37 -32.58,-13.35l-230.06 0.28c-22.72,0.03 -45.31,17.78 -45.31,41.61l0 594.95c0,23.83 22.58,41.64 45.31,41.61l230.06 -0.28c12.26,-0.01 23.86,-4.73 32.58,-13.35 7.49,-7.41 12.73,-17.74 12.73,-28.42l0 -581.67 0 -12.97z"/>
  <g clip-path="url(#id0)">
   <g id="_2664246420560">
    <path id="1" fill="#D9DADA" d="M330.64 52.1c0,-11.27 -5.41,-22.15 -13.24,-29.97 -9.04,-9.04 -21.06,-14 -33.78,-14l-232.35 0c-23.73,0 -47.02,18.78 -47.02,43.81l0 295.33 0 295.33c0,25.03 23.29,43.81 47.02,43.81l232.35 0c12.72,0 24.74,-4.95 33.78,-14 7.83,-7.83 13.24,-18.7 13.24,-29.97l0 -295.17 0 -295.17z"/>
    <path fill="#2B2A29" d="M330.74 51.86c0,-11.2 -5.37,-22.02 -13.12,-29.8 -8.97,-9 -20.88,-13.93 -33.49,-13.93l-233.49 0c-23.45,0 -46.6,18.62 -46.6,43.57l0 295.25 0 295.87c0,24.95 23.15,43.57 46.6,43.57l233.49 0c12.61,0 24.52,-4.93 33.49,-13.93 7.75,-7.78 13.12,-18.6 13.12,-29.8l0 -295.71 0 -295.09z"/>
   </g>
  </g>
  <path fill="none" stroke="#2B2A29" stroke-width="0.71" stroke-miterlimit="2.61313" d="M327.74 49.85c0,-10.68 -5.23,-21.01 -12.73,-28.42 -8.72,-8.63 -20.32,-13.37 -32.58,-13.35l-230.06 0.28c-22.72,0.03 -45.31,17.78 -45.31,41.61l0 594.95c0,23.83 22.58,41.64 45.31,41.61l230.06 -0.28c12.26,-0.01 23.86,-4.73 32.58,-13.35 7.49,-7.41 12.73,-17.74 12.73,-28.42l0 -581.67 0 -12.97z"/>
  <path fill="none" d="M26.03 50.82l282.78 0c2.3,0 4.19,1.89 4.19,4.19l0 571.1c0,2.3 -1.89,4.19 -4.19,4.19l-282.78 0c-2.3,0 -4.19,-1.88 -4.19,-4.19l0 -571.1c0,-2.3 1.88,-4.19 4.19,-4.19z"/>
  <path fill="white" d="M108.2 25.15c-0.61,1.05 -0.79,2.27 -0.54,3.43 0.1,0.49 0.28,0.96 0.54,1.4 0.26,0.45 0.58,0.84 0.95,1.18 0.01,0.01 0.02,0.01 0.02,0.02 0.87,0.77 2.01,1.22 3.21,1.22l9.66 0c2.67,0 4.83,-2.16 4.83,-4.83 0,-2.67 -2.16,-4.83 -4.83,-4.83l-9.66 0c-1.73,0 -3.32,0.92 -4.18,2.41z"/>
  <path fill="white" d="M140.65 26.92c-0.16,0.77 -0.03,1.58 0.37,2.28 0.59,1.01 1.67,1.64 2.84,1.64l1.34 0 1.5 0 3.27 0 1.5 0 3.27 0 1.5 0 3.27 0 1.5 0 3.27 0 1.5 0 3.27 0 1.5 0 3.27 0 1.5 0 3.27 0 1.5 0 3.27 0 1.5 0 3.27 0 1.5 0 1.34 0c1.26,0 2.36,-0.72 2.91,-1.76 0.24,-0.45 0.37,-0.97 0.37,-1.52 0,-0.55 -0.13,-1.06 -0.37,-1.52 -0.55,-1.05 -1.64,-1.76 -2.91,-1.76l-1.26 0 -1.65 0 -3.12 0 -1.65 0 -3.12 0 -1.65 0 -3.12 0 -1.65 0 -3.12 0 -1.65 0 -3.12 0 -1.65 0 -3.12 0 -1.65 0 -3.12 0 -1.65 0 -3.12 0 -1.65 0 -3.12 0 -1.65 0 -1.26 0c-0.72,0 -1.4,0.24 -1.96,0.65 -0.35,0.26 -0.65,0.6 -0.88,0.99 -0.07,0.12 -0.13,0.24 -0.18,0.37 -0.09,0.2 -0.15,0.42 -0.2,0.63z"/>
  <path fill="#2B2A29" d="M255.75 20.59c-3.85,0 -6.97,3.12 -6.97,6.97 0,3.85 3.12,6.97 6.97,6.97 3.85,0 6.97,-3.12 6.97,-6.97 0,-3.85 -3.12,-6.97 -6.97,-6.97z"/>
  <path fill="white" d="M26.03 50.82l282.78 0c2.3,0 4.19,1.89 4.19,4.19l0 571.1c0,2.3 -1.89,4.19 -4.19,4.19l-282.78 0c-2.3,0 -4.19,-1.88 -4.19,-4.19l0 -571.1c0,-2.3 1.88,-4.19 4.19,-4.19z"/>
  <circle fill="white" cx="226.2" cy="29.13" r="8.18"/>
 </g>
</svg>
