<?xml version="1.0" encoding="UTF-8"?>
<!DOCTYPE svg PUBLIC "-//W3C//DTD SVG 1.1//EN" "http://www.w3.org/Graphics/SVG/1.1/DTD/svg11.dtd">
<!-- Creator: CorelDRAW 2017 -->
<svg xmlns="http://www.w3.org/2000/svg" xml:space="preserve" width="1.85393in" height="3.84707in" version="1.1" shape-rendering="geometricPrecision" text-rendering="geometricPrecision" image-rendering="optimizeQuality" fill-rule="evenodd" clip-rule="evenodd"
viewBox="0 0 4762.93 9883.54"
 xmlns:xlink="http://www.w3.org/1999/xlink">
 <defs>
   <mask id="id0">
     <linearGradient id="id1" gradientUnits="userSpaceOnUse" x1="12.22" y1="328.54" x2="139.02" y2="328.54">
      <stop offset="0" stop-opacity="1" stop-color="white"/>
      <stop offset="1" stop-opacity="0" stop-color="white"/>
     </linearGradient>
    <rect fill="url(#id1)" x="36.98" y="173.52" width="90.88" height="9536.51"/>
   </mask>
 </defs>
 <g id="Слой_x0020_1">
  <metadata id="CorelCorpID_0Corel-Layer"/>
  <path fill="none" stroke="black" stroke-width="53.52" stroke-miterlimit="22.9256" d="M381.11 26.76c1344.92,0 2655.81,0 4000.72,0 194.89,0 354.34,157.94 354.34,350.96 0,3042.69 0,6085.41 0,9128.1 0,193.02 -159.46,350.96 -354.34,350.96 -1344.91,0 -2655.8,0 -4000.72,0 -194.88,0 -354.34,-157.93 -354.34,-350.96 0,-3042.69 0,-6085.41 0,-9128.1 0,-193.03 159.46,-350.96 354.34,-350.96z"/>
  <path fill="#FEFEFE" mask="url(#id0)" d="M36.98 377.72c0,-69.23 21.12,-133.85 57.32,-187.76 22.39,-33.35 47.38,-11.29 24.48,24.56 -30.24,47.35 -47.77,103.36 -47.77,163.2 0,3042.69 0,6085.41 0,9128.1 0,59.84 17.53,115.85 47.77,163.2 22.9,35.85 -2.08,57.91 -24.48,24.56 -36.2,-53.91 -57.32,-118.52 -57.32,-187.76 0,-3042.69 0,-6085.41 0,-9128.1z"/>
  <path fill="#2B2A29" stroke="black" stroke-width="7.71" stroke-miterlimit="22.9256" d="M381.11 104.28c-151.69,0 -276.08,123.2 -276.08,273.44 0,3042.7 0,6085.4 0,9128.1 0,150.24 124.39,273.44 276.08,273.44 1333.57,0 2667.15,0 4000.72,0 151.69,0 276.08,-123.2 276.08,-273.44 0,-3042.7 0,-6085.4 0,-9128.1 0,-150.24 -124.39,-273.44 -276.08,-273.44 -1333.57,0 -2667.15,0 -4000.72,0z"/>
  <rect fill="white" x="1924.78" y="345.17" width="925.5" height="122.66" rx="61.33" ry="61.33"/>
  <path fill="white" d="M1614.32 352.59l197.24 0c23.92,0 43.5,19.57 43.5,43.5l0 0c0,23.94 -19.59,43.51 -43.5,43.51l-197.24 0c-23.92,0 -43.51,-19.57 -43.51,-43.51l0 0c0,-23.93 19.58,-43.5 43.51,-43.5z"/>
  <circle fill="white" cx="3652.59" cy="396.1" r="80.74"/>
  <circle fill="white" cx="3247.49" cy="408.82" r="111.18"/>
  <rect fill="white" x="293.39" y="772.08" width="4176.15" height="8339.45"/>
 </g>
</svg>
