<?xml version="1.0" encoding="UTF-8"?>
<!DOCTYPE svg PUBLIC "-//W3C//DTD SVG 1.1//EN" "http://www.w3.org/Graphics/SVG/1.1/DTD/svg11.dtd">
<!-- Creator: CorelDRAW 2017 -->
<svg xmlns="http://www.w3.org/2000/svg" xml:space="preserve" width="1.84234in" height="3.82924in" version="1.1" shape-rendering="geometricPrecision" text-rendering="geometricPrecision" image-rendering="optimizeQuality" fill-rule="evenodd" clip-rule="evenodd"
viewBox="0 0 850.96 1768.68"
 xmlns:xlink="http://www.w3.org/1999/xlink">
 <defs>
    <clipPath id="id0">
     <path d="M425.48 0.69l286.39 0c87.42,0 138.39,46.8 138.39,135.42l0 764.67 0 731.78c0,88.62 -50.98,135.42 -138.39,135.42l-286.39 0 -286.39 0c-87.42,0 -138.39,-46.8 -138.39,-135.42l0 -731.78 0 -764.67c0,-88.62 50.97,-135.42 138.39,-135.42l286.39 0z"/>
    </clipPath>
    <clipPath id="id1">
     <path d="M311.11 58.51c8.96,0 16.22,7.26 16.22,16.22 0,8.96 -7.26,16.22 -16.22,16.22 -8.96,0 -16.22,-7.26 -16.22,-16.22 0,-8.96 7.26,-16.22 16.22,-16.22z"/>
    </clipPath>
 </defs>
 <g id="Слой_x0020_1">
  <metadata id="CorelCorpID_0Corel-Layer"/>
  <g id="_2664207405856">
   <path fill="#EBECEC" d="M425.48 0.69l286.39 0c87.42,0 138.39,46.8 138.39,135.42l0 764.67 0 731.78c0,88.62 -50.98,135.42 -138.39,135.42l-286.39 0 -286.39 0c-87.42,0 -138.39,-46.8 -138.39,-135.42l0 -731.78 0 -764.67c0,-88.62 50.97,-135.42 138.39,-135.42l286.39 0z"/>
   <g clip-path="url(#id0)">
    <g>
     <path id="1" fill="#EBECEC" d="M425.48 0.69l286.39 0c87.42,0 138.39,46.8 138.39,135.42l0 764.67 0 731.78c0,88.62 -50.98,135.42 -138.39,135.42l-286.39 0 -286.39 0c-87.42,0 -138.39,-46.8 -138.39,-135.42l0 -731.78 0 -764.67c0,-88.62 50.97,-135.42 138.39,-135.42l286.39 0z"/>
     <g>
      <path fill="#DDDDDE" d="M711.87 1.3l-572.78 0c-87.14,0 -137.79,46.59 -137.79,134.81l0 1496.46c0,88.23 50.65,134.81 137.79,134.81l572.78 0c87.14,0 137.79,-46.59 137.79,-134.81l0 -1496.46c0,-88.23 -50.65,-134.81 -137.79,-134.81z"/>
      <path fill="#CECECF" d="M711.87 1.9l-572.78 0c-86.8,0 -137.19,46.32 -137.19,134.21l0 1496.46c0,87.89 50.39,134.21 137.19,134.21l572.78 0c86.8,0 137.19,-46.32 137.19,-134.21l0 -1496.46c0,-87.89 -50.39,-134.21 -137.19,-134.21z"/>
      <path fill="#BEBEBF" d="M711.87 2.5l-572.78 0c-86.47,0 -136.59,46.05 -136.59,133.61l0 1496.46c0,87.56 50.12,133.61 136.59,133.61l572.78 0c86.47,0 136.59,-46.05 136.59,-133.61l0 -1496.46c0,-87.56 -50.12,-133.61 -136.59,-133.61z"/>
      <path fill="#AEAFAF" d="M711.87 3.1l-572.78 0c-86.13,0 -135.99,45.79 -135.99,133.01l0 1496.46c0,87.22 49.85,133.01 135.99,133.01l572.78 0c86.13,0 135.99,-45.79 135.99,-133.01l0 -1496.46c0,-87.22 -49.85,-133.01 -135.99,-133.01z"/>
      <path fill="#9D9E9E" d="M711.87 3.7l-572.78 0c-85.8,0 -135.38,45.52 -135.38,132.41l0 1496.46c0,86.89 49.58,132.41 135.38,132.41l572.78 0c85.8,0 135.38,-45.52 135.38,-132.41l0 -1496.46c0,-86.89 -49.58,-132.41 -135.38,-132.41z"/>
     </g>
     <path fill="#9D9E9E" d="M711.87 5.2l-572.78 0c-84.97,0 -133.88,44.85 -133.88,130.91l0 1496.46c0,86.05 48.91,130.91 133.88,130.91l572.78 0c84.97,0 133.88,-44.85 133.88,-130.91l0 -1496.46c0,-86.05 -48.91,-130.91 -133.88,-130.91z"/>
     <g>
      <path fill="#AEAFAF" d="M711.87 5.81l-572.78 0c-84.63,0 -133.28,44.58 -133.28,130.3l0 1496.46c0,85.72 48.65,130.3 133.28,130.3l572.78 0c84.63,0 133.28,-44.58 133.28,-130.3l0 -1496.46c0,-85.72 -48.65,-130.3 -133.28,-130.3z"/>
      <path fill="#C0C1C1" d="M711.87 6.41l-572.78 0c-84.3,0 -132.68,44.31 -132.68,129.7l0 1496.46c0,85.39 48.38,129.7 132.68,129.7l572.78 0c84.3,0 132.68,-44.31 132.68,-129.7l0 -1496.46c0,-85.39 -48.38,-129.7 -132.68,-129.7z"/>
      <path fill="#CFD0D0" d="M711.87 7.01l-572.78 0c-83.97,0 -132.08,44.04 -132.08,129.1l0 1496.46c0,85.05 48.11,129.1 132.08,129.1l572.78 0c83.97,0 132.08,-44.04 132.08,-129.1l0 -1496.46c0,-85.05 -48.11,-129.1 -132.08,-129.1z"/>
      <path fill="#E1E1E1" d="M711.87 7.61l-572.78 0c-83.63,0 -131.48,43.78 -131.48,128.5l0 1496.46c0,84.72 47.85,128.5 131.48,128.5l572.78 0c83.63,0 131.48,-43.78 131.48,-128.5l0 -1496.46c0,-84.72 -47.85,-128.5 -131.48,-128.5z"/>
      <path fill="#F0F0F0" d="M711.87 8.21l-572.78 0c-83.3,0 -130.87,43.51 -130.87,127.9l0 1496.46c0,84.38 47.58,127.89 130.87,127.89l572.78 0c83.3,0 130.87,-43.51 130.87,-127.89l0 -1496.46c0,-84.38 -47.57,-127.9 -130.87,-127.9z"/>
      <path fill="#FEFEFE" d="M711.87 8.82l-572.78 0c-82.97,0 -130.27,43.25 -130.27,127.29l0 1496.46c0,84.05 47.31,127.29 130.27,127.29l572.78 0c82.96,0 130.27,-43.24 130.27,-127.29l0 -1496.46c0,-84.05 -47.31,-127.29 -130.27,-127.29z"/>
     </g>
    </g>
   </g>
   <path fill="none" stroke="black" stroke-width="1.39" stroke-miterlimit="2.61313" d="M425.48 0.69l286.39 0c87.42,0 138.39,46.8 138.39,135.42l0 764.67 0 731.78c0,88.62 -50.98,135.42 -138.39,135.42l-286.39 0 -286.39 0c-87.42,0 -138.39,-46.8 -138.39,-135.42l0 -731.78 0 -764.67c0,-88.62 50.97,-135.42 138.39,-135.42l286.39 0z"/>
   <path fill="black" stroke="black" stroke-width="1.39" stroke-miterlimit="2.61313" d="M425.48 0.69l286.39 0c87.42,0 138.39,46.8 138.39,135.42l0 764.67 0 731.78c0,88.62 -50.98,135.42 -138.39,135.42l-286.39 0 -286.39 0c-87.42,0 -138.39,-46.8 -138.39,-135.42l0 -731.78 0 -764.67c0,-88.62 50.97,-135.42 138.39,-135.42l286.39 0z"/>
   <path fill="white" stroke="black" stroke-width="1.39" stroke-miterlimit="2.61313" d="M659.19 74.73c0,10.55 8.55,19.1 19.1,19.1 10.55,0 19.1,-8.55 19.1,-19.1 0,-10.55 -8.55,-19.1 -19.1,-19.1 -10.55,0 -19.1,8.55 -19.1,19.1z"/>
   <path fill="white" stroke="black" stroke-width="1.39" stroke-miterlimit="2.61313" d="M552.46 60.55c-7.83,0 -14.18,6.35 -14.18,14.19 0,7.83 6.35,14.18 14.18,14.18l39.39 0c7.83,0 14.19,-6.35 14.19,-14.18 0,-7.84 -6.35,-14.19 -14.19,-14.19l-39.39 0z"/>
   <path fill="#FFF7B2" d="M311.11 58.51c8.96,0 16.22,7.26 16.22,16.22 0,8.96 -7.26,16.22 -16.22,16.22 -8.96,0 -16.22,-7.26 -16.22,-16.22 0,-8.96 7.26,-16.22 16.22,-16.22z"/>
   <g clip-path="url(#id1)">
    <g>
     <rect fill="white" stroke="black" stroke-width="3.21" stroke-miterlimit="2.61313" x="278.47" y="51.17" width="55.28" height="45.37"/>
    </g>
   </g>
   <path fill="none" stroke="black" stroke-width="1.39" stroke-miterlimit="2.61313" d="M311.11 58.51c8.96,0 16.22,7.26 16.22,16.22 0,8.96 -7.26,16.22 -16.22,16.22 -8.96,0 -16.22,-7.26 -16.22,-16.22 0,-8.96 7.26,-16.22 16.22,-16.22z"/>
   <rect fill="white" stroke="black" stroke-width="3.21" stroke-miterlimit="2.61313" x="39.5" y="115.82" width="770.48" height="1534.23" rx="36.37" ry="40.61"/>
  </g>
 </g>
</svg>
