<?xml version="1.0" encoding="utf-8"?>
<!-- Generator: Adobe Illustrator 21.1.0, SVG Export Plug-In . SVG Version: 6.00 Build 0)  -->
<svg version="1.1"
	 id="Layer_1" shape-rendering="geometricPrecision" image-rendering="optimizeQuality" text-rendering="geometricPrecision"
	 xmlns="http://www.w3.org/2000/svg" xmlns:xlink="http://www.w3.org/1999/xlink" x="0px" y="0px" viewBox="0 0 137.2 278.7"
	 style="enable-background:new 0 0 137.2 278.7;" xml:space="preserve">
<style type="text/css">
	.st0{fill:#FFFFFF;stroke:#000000;stroke-width:3.21;stroke-miterlimit:2.6131;}
	.st1{clip-path:url(#SVGID_2_);}
	.st2{fill:none;stroke:#000000;stroke-width:4.67;stroke-miterlimit:22.9256;}
	.st3{clip-path:url(#SVGID_6_);}
	.st4{fill:none;}
	.st5{fill:none;stroke:#000000;stroke-width:18.67;stroke-miterlimit:22.9256;}
	.st6{fill:#FFFFFF;}
	.st7{fill:#2B2A29;}
	.st8{clip-path:url(#SVGID_10_);}
	.st9{clip-path:url(#SVGID_12_);}
</style>
<path class="st0" d="M8.7,14.6h119.8c3.4,0,6.2,2.9,6.2,6.5v234.1c0,20.2-9.8,21.4-13.3,21.4l-104.5,0c-3.4,0-14.2,0-14.6-21.5V21.1
	C2.4,17.5,5.2,14.6,8.7,14.6z"/>
<g>
	<g>
		<defs>
			<path id="SVGID_1_" d="M120.2,277.8c11.5,0,16.1-9.7,16.1-18.2V19.1c0-8.6-4.6-18.2-16.1-18.2c-34.9,0-68.8,0-103.2,0
				C5.5,0.9,0.9,10.6,0.9,19.1c0,80.2,0,160.3,0,240.5c0,8.6,4.6,18.2,16.1,18.2H120.2z"/>
		</defs>
		<clipPath id="SVGID_2_">
			<use xlink:href="#SVGID_1_"  style="overflow:visible;"/>
		</clipPath>
		<g class="st1">
			<g>
				
					<image style="overflow:visible;enable-background:new    ;" width="232" height="467" xlink:href="78F99F17.jpg"  transform="matrix(1.6561 0 0 1.6717 -635.5406 -1.528)">
				</image>
			</g>
			<g>
				<defs>
					<path id="SVGID_3_" d="M120.2,277.8c11.5,0,16.1-9.7,16.1-18.2V19.1c0-8.6-4.6-18.2-16.1-18.2c-34.9,0-68.8,0-103.2,0
						C5.5,0.9,0.9,10.6,0.9,19.1c0,80.2,0,160.3,0,240.5c0,8.6,4.6,18.2,16.1,18.2H120.2z"/>
				</defs>
				<clipPath id="SVGID_4_">
					<use xlink:href="#SVGID_3_"  style="overflow:visible;"/>
				</clipPath>
			</g>
			<path class="st2" d="M120.2,277.8c11.5,0,16.1-9.7,16.1-18.2V19.1c0-8.6-4.6-18.2-16.1-18.2c-34.9,0-68.8,0-103.2,0
				C5.5,0.9,0.9,10.6,0.9,19.1c0,80.2,0,160.3,0,240.5c0,8.6,4.6,18.2,16.1,18.2H120.2z"/>
			<path d="M136.4,19.1L136.4,19.1c0-8.6-4.6-18.2-16.1-18.2c-34.9,0-68.8,0-103.2,0C5.5,0.9,0.9,10.6,0.9,19.1l0,0H136.4z"/>
			<g>
				<defs>
					<path id="SVGID_5_" d="M136.4,19.1L136.4,19.1c0-8.6-4.6-18.2-16.1-18.2c-34.9,0-68.8,0-103.2,0C5.5,0.9,0.9,10.6,0.9,19.1l0,0
						H136.4z"/>
				</defs>
				<clipPath id="SVGID_6_">
					<use xlink:href="#SVGID_5_"  style="overflow:visible;"/>
				</clipPath>
				<g class="st3">
					<g>
						
							<image style="overflow:visible;enable-background:new    ;" width="232" height="467" xlink:href="78F99F15.jpg"  transform="matrix(1.6561 0 0 1.6717 -635.5406 -1.528)">
						</image>
					</g>
					<g>
						<defs>
							<path id="SVGID_7_" d="M136.4,19.1L136.4,19.1c0-8.6-4.6-18.2-16.1-18.2c-34.9,0-68.8,0-103.2,0C5.5,0.9,0.9,10.6,0.9,19.1
								l0,0H136.4z"/>
						</defs>
						<clipPath id="SVGID_8_">
							<use xlink:href="#SVGID_7_"  style="overflow:visible;"/>
						</clipPath>
					</g>
					<path class="st4" d="M136.4,19.1L136.4,19.1c0-8.6-4.6-18.2-16.1-18.2c-34.9,0-68.8,0-103.2,0C5.5,0.9,0.9,10.6,0.9,19.1l0,0
						H136.4z"/>
					<path class="st5" d="M120.2,276.7c4.7,0,8.7-1.7,11.5-5.5c2.4-3.3,3.5-7.6,3.5-11.6V19.1c0-1.9-0.2-3.8-0.7-5.7
						c-1.9-7-6.8-11.4-14.3-11.4C85.8,2,51.4,2,17,2C12.4,2,8.3,3.7,5.5,7.5C3.1,10.8,2,15.1,2,19.1c0,80.2,0,160.3,0,240.5
						c0,1.9,0.2,3.8,0.7,5.7c1.9,7,6.8,11.4,14.3,11.4H120.2z"/>
					<path class="st6" d="M98.4,7.7c-1.9,0-3.4,1.5-3.4,3.4s1.5,3.4,3.4,3.4s3.4-1.5,3.4-3.4S100.3,7.7,98.4,7.7z"/>
					<path class="st6" d="M58.2,12.4h20.9c0.7,0,1.3-0.6,1.3-1.3s-0.6-1.3-1.3-1.3H58.2c-0.5,0-0.9,0.2-1.1,0.6
						c-0.2,0.4-0.2,0.9,0,1.3C57.3,12.2,57.7,12.4,58.2,12.4z"/>
					<path class="st6" d="M87.5,8.5c-1.5,0-2.6,1.2-2.6,2.6s1.2,2.6,2.6,2.6c1.5,0,2.6-1.2,2.6-2.6S88.9,8.5,87.5,8.5z"/>
					<path class="st7" d="M0.9,18.1v1c45.2,0,90.3,0,135.5,0v-1C91.2,18.1,46.1,18.1,0.9,18.1z"/>
					<g>
						<defs>
							<path id="SVGID_9_" d="M0.9,18.1v1c45.2,0,90.3,0,135.5,0v-1C91.2,18.1,46.1,18.1,0.9,18.1z"/>
						</defs>
						<clipPath id="SVGID_10_">
							<use xlink:href="#SVGID_9_"  style="overflow:visible;"/>
						</clipPath>
						<g class="st8">
							<g>
								<path id="_x31_" class="st7" d="M0.9,18.1v0.1c45.2,0,90.3,0,135.5,0v-0.1C91.2,18.1,46.1,18.1,0.9,18.1z"/>
							</g>
						</g>
					</g>
					<path class="st4" d="M0.9,18.1v1c45.2,0,90.3,0,135.5,0v-1C91.2,18.1,46.1,18.1,0.9,18.1z"/>
					<path d="M136.7,256.7L136.7,256.7c0,8.6-4.6,21.1-15.9,21.1c-34.4,0-72.1-0.1-105.9-0.1c-11.3,0-13.7-12.5-13.7-21l0,0H136.7
						L136.7,256.7z"/>
					<g>
						<defs>
							<path id="SVGID_11_" d="M136.7,256.7L136.7,256.7c0,8.6-4.6,21.1-15.9,21.1c-34.4,0-72.1-0.1-105.9-0.1
								c-11.3,0-13.7-12.5-13.7-21l0,0H136.7L136.7,256.7z"/>
						</defs>
						<clipPath id="SVGID_12_">
							<use xlink:href="#SVGID_11_"  style="overflow:visible;"/>
						</clipPath>
						<g id="Слой_x0020_1" class="st9">
							<g>
								
									<image style="overflow:visible;enable-background:new    ;" width="228" height="467" xlink:href="78F99F1B.jpg"  transform="matrix(1.6632 0 0 1.6717 -623.3127 -12.5327)">
								</image>
							</g>
							<g>
								<defs>
									<path id="SVGID_13_" d="M136.7,256.7L136.7,256.7c0,8.6-4.6,21.1-15.9,21.1c-34.4,0-72.1-0.1-105.9-0.1
										c-11.3,0-13.7-12.5-13.7-21l0,0H136.7L136.7,256.7z"/>
								</defs>
								<clipPath id="SVGID_14_">
									<use xlink:href="#SVGID_13_"  style="overflow:visible;"/>
								</clipPath>
							</g>
							<path class="st4" d="M136.7,256.7L136.7,256.7c0,8.6-4.6,21.1-15.9,21.1c-34.4,0-72.1-0.1-105.9-0.1
								c-11.3,0-13.7-12.5-13.7-21l0,0H136.7L136.7,256.7z"/>
						</g>
					</g>
				</g>
			</g>
		</g>
	</g>
</g>
</svg>
