<?xml version="1.0" encoding="UTF-8"?>
<!DOCTYPE svg PUBLIC "-//W3C//DTD SVG 1.1//EN" "http://www.w3.org/Graphics/SVG/1.1/DTD/svg11.dtd">
<!-- Creator: CorelDRAW 2017 -->
<svg xmlns="http://www.w3.org/2000/svg" xml:space="preserve" width="1.90193in" height="3.8818in" version="1.1" shape-rendering="geometricPrecision" text-rendering="geometricPrecision" image-rendering="optimizeQuality" fill-rule="evenodd" clip-rule="evenodd"
viewBox="0 0 350.42 715.21"
 xmlns:xlink="http://www.w3.org/1999/xlink">
 <g id="Слой_x0020_1">
  <metadata id="CorelCorpID_0Corel-Layer"/>
  <path fill="none" stroke="#2B2A29" stroke-width="10.24" stroke-miterlimit="2.61313" d="M41.49 5.12c-25.64,0 -36.37,20.22 -36.37,35.2 0,0.39 0.01,6.86 0.01,7.26l0.69 0 0 2.55 -0.69 0c0.04,204.98 0.04,409.96 0,614.93l0.69 0 0 2.55 -0.69 0c0,0.4 -0.01,6.87 -0.01,7.26 0,14.98 10.73,35.2 36.37,35.2l267.45 0c25.64,0 36.37,-20.22 36.37,-35.2 0,-0.39 -0.01,-6.86 -0.01,-7.26l-0.69 0 0 -2.55 0.69 0c-0.04,-204.98 -0.04,-409.96 0,-614.93l-0.69 0 0 -2.55 0.69 0c0,-0.4 0.01,-6.87 0.01,-7.26 0,-14.98 -10.73,-35.2 -36.37,-35.2l-267.45 0z"/>
  <path fill="black" stroke="#2B2A29" stroke-width="2.56" stroke-miterlimit="2.61313" d="M345.31 48.3c0,-2.66 0,-5.32 0,-7.97 0,-14.98 -10.73,-35.2 -36.37,-35.2l-267.45 0c-25.64,0 -36.37,20.22 -36.37,35.2 0,2.78 0,5.57 0,8.36l340.19 -0.38zm-340.19 617.8c0,2.93 0,5.86 0,8.79 0,14.98 10.73,35.2 36.37,35.2l267.45 0c25.64,0 36.37,-20.22 36.37,-35.2 0,-2.85 0,-5.7 0,-8.55l-340.19 -0.24z"/>
  <path fill="white" stroke="#2B2A29" stroke-width="1.45" stroke-miterlimit="2.61313" d="M104.58 27.59l-14.86 0c-2.1,0 -4.04,1.12 -5.1,2.94 -1.05,1.82 -1.05,4.06 0,5.88 1.05,1.82 2.99,2.94 5.1,2.94l14.86 0c3.25,0 5.88,-2.64 5.88,-5.88 0,-3.25 -2.63,-5.88 -5.88,-5.88z"/>
  <path fill="white" stroke="#2B2A29" stroke-width="1.45" stroke-miterlimit="2.61313" d="M205.18 28.53l-59.94 0c-1.75,0 -3.36,0.93 -4.24,2.45 -0.87,1.51 -0.87,3.38 0,4.89 0.87,1.51 2.49,2.45 4.24,2.45l59.94 0c2.7,0 4.89,-2.19 4.89,-4.89 0,-2.7 -2.19,-4.89 -4.89,-4.89z"/>
  <path fill="white" stroke="black" stroke-width="1.45" stroke-miterlimit="2.61313" d="M274.89 30.64c0,-5.07 -4.11,-9.18 -9.18,-9.18 -5.07,0 -9.18,4.11 -9.18,9.18 0,5.07 4.11,9.18 9.18,9.18 5.07,0 9.18,-4.11 9.18,-9.18z"/>
 </g>
</svg>
