<?xml version="1.0" encoding="UTF-8"?>
<!DOCTYPE svg PUBLIC "-//W3C//DTD SVG 1.1//EN" "http://www.w3.org/Graphics/SVG/1.1/DTD/svg11.dtd">
<!-- Creator: CorelDRAW 2017 -->
<svg xmlns="http://www.w3.org/2000/svg" xml:space="preserve" width="8.36431in" height="2.74544in" version="1.1" shape-rendering="geometricPrecision" text-rendering="geometricPrecision" image-rendering="optimizeQuality" fill-rule="evenodd" clip-rule="evenodd"
viewBox="0 0 154.82 50.82"
 xmlns:xlink="http://www.w3.org/1999/xlink">
 <g id="图层_x0020_1">
  <metadata id="CorelCorpID_0Corel-Layer"/>
  <g id="_2664246096720">
   <path fill="#006CB5" d="M91.64 0.13c0,0 -28.1,0 -28.1,0 -2.47,0 -4.47,2 -4.47,4.47 0,0 0,0 0,0 0,2.47 2,4.47 4.47,4.47 0,0 27.26,0 27.26,0 2.47,0 4.47,2 4.47,4.47 0,0 0,23.54 0,23.54 0,2.47 -2,4.47 -4.47,4.47 0,0 -27.26,0 -27.26,0 -2.47,0 -4.47,2 -4.47,4.47 0,0 0,0 0,0 0,2.47 2,4.47 4.47,4.47 0,0 28.08,0 28.08,0 6.93,0 12.55,-5.61 12.56,-12.54 0,0 0.02,-25.26 0.02,-25.26 0.01,-6.94 -5.62,-12.57 -12.56,-12.57z"/>
   <path fill="#006CB5" d="M122.24 0.13c0,0 28.1,0 28.1,0 2.47,0 4.47,2 4.47,4.47 0,0 0,0 0,0 0,2.47 -2,4.47 -4.47,4.47 0,0 -27.26,0 -27.26,0 -2.47,0 -4.47,2 -4.47,4.47 0,0 0,23.54 0,23.54 0,2.47 2,4.47 4.47,4.47 0,0 27.26,0 27.26,0 2.47,0 4.47,2 4.47,4.47 0,0 0,0 0,0 0,2.47 -2,4.47 -4.47,4.47 0,0 -28.08,0 -28.08,0 -6.93,0 -12.55,-5.61 -12.56,-12.54 0,0 -0.02,-25.26 -0.02,-25.26 -0.01,-6.94 5.62,-12.57 12.56,-12.57z"/>
   <path fill="#006CB5" d="M53.54 4.41c-0,-0.09 -0.01,-0.17 -0.01,-0.26 -0.01,-0.07 -0.02,-0.14 -0.03,-0.21 -0.01,-0.08 -0.02,-0.16 -0.04,-0.23 -0.01,-0.07 -0.03,-0.14 -0.05,-0.22 -0.02,-0.07 -0.03,-0.14 -0.06,-0.22 -0.02,-0.07 -0.05,-0.15 -0.07,-0.22 -0.02,-0.07 -0.05,-0.13 -0.07,-0.2 -0.03,-0.08 -0.06,-0.15 -0.1,-0.22 -0.03,-0.06 -0.06,-0.12 -0.09,-0.18 -0.04,-0.08 -0.08,-0.15 -0.13,-0.23 -0.03,-0.05 -0.06,-0.11 -0.1,-0.16 -0.05,-0.08 -0.11,-0.15 -0.16,-0.23 -0.03,-0.03 -0.05,-0.07 -0.07,-0.1 -0.01,-0.01 -0.02,-0.02 -0.03,-0.03 -0.06,-0.07 -0.12,-0.14 -0.18,-0.21 -0.04,-0.05 -0.08,-0.09 -0.12,-0.14 -0.06,-0.06 -0.11,-0.11 -0.17,-0.16 -0.05,-0.05 -0.11,-0.1 -0.16,-0.15 -0.05,-0.04 -0.1,-0.08 -0.16,-0.12 -0.07,-0.05 -0.13,-0.1 -0.2,-0.15 -0.05,-0.04 -0.11,-0.07 -0.17,-0.1 -0.07,-0.04 -0.13,-0.09 -0.2,-0.12 -0.08,-0.04 -0.16,-0.08 -0.24,-0.12 -0.05,-0.02 -0.1,-0.05 -0.15,-0.07 -0.1,-0.04 -0.2,-0.08 -0.3,-0.11 -0.04,-0.01 -0.07,-0.03 -0.11,-0.04 -0.1,-0.03 -0.2,-0.05 -0.3,-0.08 -0.04,-0.01 -0.09,-0.02 -0.13,-0.03 -0.08,-0.02 -0.17,-0.03 -0.26,-0.04 -0.06,-0.01 -0.13,-0.02 -0.19,-0.03 -0.07,-0.01 -0.14,-0.01 -0.21,-0.02 -0.08,-0.01 -0.16,-0.01 -0.24,-0.01 -0.02,-0 -0.03,-0 -0.05,-0 -0.05,0 -0.1,0.01 -0.15,0.01 -0.09,0 -0.17,0.01 -0.26,0.01 -0.07,0.01 -0.14,0.02 -0.2,0.02 -0.08,0.01 -0.16,0.02 -0.24,0.04 -0.07,0.01 -0.14,0.03 -0.21,0.05 -0.07,0.02 -0.15,0.04 -0.22,0.06 -0.07,0.02 -0.14,0.05 -0.22,0.07 -0.07,0.02 -0.14,0.05 -0.2,0.07 -0.07,0.03 -0.15,0.06 -0.22,0.1 -0.06,0.03 -0.12,0.06 -0.19,0.09 -0.07,0.04 -0.15,0.08 -0.22,0.12 -0.06,0.03 -0.11,0.07 -0.17,0.1 -0.08,0.05 -0.15,0.1 -0.22,0.16 -0.04,0.03 -0.08,0.05 -0.11,0.08 0,0 -19.4,15.28 -19.4,15.28 0,0 -19.4,-15.28 -19.4,-15.28 -0.04,-0.03 -0.08,-0.05 -0.11,-0.08 -0.07,-0.05 -0.14,-0.11 -0.22,-0.16 -0.05,-0.04 -0.11,-0.07 -0.17,-0.1 -0.07,-0.04 -0.14,-0.09 -0.22,-0.12 -0.06,-0.03 -0.12,-0.06 -0.19,-0.09 -0.07,-0.03 -0.14,-0.07 -0.22,-0.1 -0.07,-0.03 -0.14,-0.05 -0.2,-0.07 -0.07,-0.02 -0.14,-0.05 -0.22,-0.07 -0.07,-0.02 -0.15,-0.04 -0.22,-0.06 -0.07,-0.02 -0.14,-0.03 -0.21,-0.05 -0.08,-0.01 -0.16,-0.03 -0.24,-0.04 -0.07,-0.01 -0.14,-0.02 -0.2,-0.02 -0.09,-0.01 -0.17,-0.01 -0.26,-0.01 -0.05,-0 -0.1,-0.01 -0.15,-0.01 -0.02,0 -0.03,0 -0.05,0 -0.08,0 -0.16,0.01 -0.24,0.01 -0.07,0 -0.14,0.01 -0.21,0.02 -0.06,0.01 -0.13,0.02 -0.19,0.03 -0.09,0.01 -0.17,0.02 -0.26,0.04 -0.04,0.01 -0.09,0.02 -0.13,0.03 -0.1,0.02 -0.2,0.05 -0.3,0.08 -0.04,0.01 -0.07,0.03 -0.11,0.04 -0.1,0.04 -0.2,0.07 -0.3,0.11 -0.05,0.02 -0.1,0.05 -0.15,0.07 -0.08,0.04 -0.16,0.07 -0.24,0.12 -0.07,0.04 -0.14,0.08 -0.2,0.12 -0.06,0.03 -0.11,0.07 -0.17,0.1 -0.07,0.05 -0.13,0.1 -0.2,0.15 -0.05,0.04 -0.11,0.08 -0.16,0.12 -0.06,0.05 -0.11,0.1 -0.16,0.15 -0.06,0.05 -0.12,0.1 -0.17,0.16 -0.04,0.04 -0.08,0.09 -0.12,0.14 -0.06,0.07 -0.12,0.14 -0.18,0.21 -0.01,0.01 -0.02,0.02 -0.03,0.03 -0.03,0.03 -0.05,0.07 -0.07,0.1 -0.06,0.08 -0.11,0.15 -0.16,0.23 -0.03,0.05 -0.06,0.11 -0.1,0.16 -0.04,0.07 -0.09,0.15 -0.13,0.23 -0.03,0.06 -0.06,0.12 -0.09,0.18 -0.03,0.07 -0.07,0.15 -0.1,0.22 -0.03,0.07 -0.05,0.13 -0.07,0.2 -0.03,0.07 -0.05,0.15 -0.07,0.22 -0.02,0.07 -0.04,0.14 -0.06,0.22 -0.02,0.07 -0.03,0.14 -0.05,0.22 -0.01,0.08 -0.03,0.16 -0.04,0.23 -0.01,0.07 -0.02,0.14 -0.03,0.21 -0.01,0.09 -0.01,0.17 -0.01,0.26 -0,0.05 -0.01,0.1 -0.01,0.15 0,0 0,41.7 0,41.7 0,2.52 2.04,4.56 4.56,4.56 2.52,0 4.56,-2.04 4.56,-4.56 0,0 0,-32.32 0,-32.32 0,0 14.66,11.55 14.66,11.55 0.41,0.36 0.87,0.63 1.36,0.82 0.01,0.01 0.03,0.01 0.04,0.01 0.12,0.04 0.24,0.08 0.35,0.12 0.03,0.01 0.07,0.02 0.1,0.03 0.1,0.03 0.2,0.05 0.3,0.07 0.05,0.01 0.1,0.02 0.15,0.03 0.09,0.01 0.17,0.02 0.26,0.03 0.06,0.01 0.13,0.01 0.19,0.01 0.08,0 0.15,0.01 0.23,0.01 0.08,0 0.15,-0 0.23,-0.01 0.06,-0 0.13,-0.01 0.19,-0.01 0.09,-0.01 0.17,-0.02 0.26,-0.03 0.05,-0.01 0.1,-0.02 0.15,-0.03 0.1,-0.02 0.2,-0.04 0.3,-0.07 0.03,-0.01 0.07,-0.02 0.1,-0.03 0.12,-0.03 0.24,-0.07 0.36,-0.12 0.01,-0 0.03,-0.01 0.04,-0.01 0.49,-0.19 0.95,-0.46 1.36,-0.82 0,0 14.66,-11.55 14.66,-11.55 0,0 0,32.32 0,32.32 0,2.52 2.04,4.56 4.56,4.56 2.52,0 4.56,-2.04 4.56,-4.56 0,0 0,-41.7 0,-41.7 0,-0.05 -0.01,-0.1 -0.01,-0.15z"/>
  </g>
 </g>
</svg>
